<svg xmlns="http://www.w3.org/2000/svg" height="48" viewBox="0 -960 960 960" width="48"><path d="M242-254q56-38 113.045-59.5 57.046-21.5 125-21.5Q548-335 604.5-313.5T719-254q42-47 66-103.086T809-480q0-137-96-233t-233-96q-137 0-233 96t-96 233q0 66.828 24 122.914T242-254Zm237.774-203Q427-457 391-493.226t-36-89Q355-635 391.226-671t89-36Q533-707 569-670.774t36 89Q605-529 568.774-493t-89 36Zm.694 341Q404-116 338.252-144.263t-115.5-78.5Q173-273 144.5-338.266q-28.5-65.266-28.5-142 0-74.734 28.711-140.647 28.71-65.914 78.464-116.237 49.754-50.324 115.056-78.587Q403.532-844 480.266-844q74.734 0 140.647 28.711 65.914 28.71 116 78.5Q787-687 815.5-621.049 844-555.097 844-480.468q0 76.468-28.263 142.216t-78.587 115.29q-50.323 49.541-116.188 78.251Q555.097-116 480.468-116ZM480-151q55 0 111-19.5T691-229q-43.586-32.967-97.793-51.983Q539-300 480-300q-59 0-113.5 18.5T271-228.697q42 38.304 98 58Q425-151 480-151Zm.14-341Q518-492 544-518.14q26-26.139 26-64Q570-620 543.86-646q-26.139-26-64-26Q442-672 416-645.86q-26 26.139-26 64Q390-544 416.14-518q26.139 26 64 26Zm-.14-90Zm0 356Z"/></svg>