<svg xmlns="http://www.w3.org/2000/svg" viewBox="0 0 547.5791 426.0449">
  <g id="Layer_2" data-name="Layer 2">
    <g id="_Layer_" data-name="&lt;Layer&gt;">
      <g>
        <path d="M547.5791,412.2246c0,7.6328-122.5791,13.8203-273.7891,13.8203C122.5801,426.0449,0,419.8574,0,412.2246c0-7.6318,122.5801-13.8183,273.79-13.8183C425,398.4063,547.5791,404.5928,547.5791,412.2246Z" fill="#abb9c1"/>
        <path d="M402.5312,285.5322c-13.2314-7.6923-142.1855-82.7998-157.3818-86.0048-8.8555-1.1953-23.8106,2.5888-32.2061,6.4541-15.9179,7.3545-12.1992,15.705-4.7031,15.9306,8.8291.2959,23.2315-8.6465,25.1729-17.29,4.0097-15.126,17.5088-7.8574,20.9902,2.498,3.2422,9.4073,3.0469,27.3936-4.8613,33.1358-4.4981,3.4492-20.086,3.1875-24.5449,1.1797l2.9902-4.2354c3.3183,2.0528,8.4844,3.4785,15.4521,2.6895,3.9014-.5264,7.4834-1.7129,9.626-10.4698,4.5215-19.2539-4.7656-31.4834-11.6318-31.1826-5.4658.1778-4.8926,7.4082-8.3614,12.3653-6.0673,8.5293-23.541,17.8271-30.8574,11.4531-3.0215-2.5576-3.9365-7.1758.1221-11.624,8.2812-8.6602,32.0488-14.4668,43.1348-12.9727,13.9697,2.9365,145.1425,78.4805,158.2461,86.0137Z" fill="#704f77"/>
        <g>
          <path d="M166.6709,247.7647l-19.4141-23.7061-16.3379,48.9317s-4.2236,2.0283-7.4453,3.9707c-8.9502,5.3945-46.5312,81.8193-46.5312,85.5742,0,5.8633,13.2988,14.2412,16.0088,7.8183a97.26656,97.26656,0,0,1,5.2421-10.0146l54.9942-74.4707Z" fill="#fc7575"/>
          <path d="M177.2236.8213s13.1367,6.0752,17.0762,14.7783c3.9414,8.7012-5.9102,23.3145-2.1338,29.7188,3.7764,6.4033,8.3193,8.7207,3.083,13.957s-11.2676,11.1729-7.8281,14.6133c3.4394,3.4394,13.3496,5.9102,10.1972,10.5078-3.1533,4.5977-9.0195,1.5361-8.2441,11.3057,0,0-10.3437-13.958-10.3437-18.5303,0-4.5713-36.1856,2.9561-40.5567,9.3594C134.1035,92.9346,162.7744-2.4629,177.2236.8213Z" fill="#1e1d2c"/>
          <path d="M258.2109,380.2412,254.75,363.7237h0l-25.3291-80.626L204.8476,230.125s-25.1142,5.0489-28.7646,12.6875c0,0,28.2422,52.4893,28.9394,52.4893.6973,0,1.5762,8.7666,4.709,22.8125,3.1328,14.0469,28.086,54.1826,28.086,54.1826h0l10.1748,22.0586Z" fill="#fc7575"/>
          <path d="M85.6025,365.6065s1.9317,5.2295,5.1309,3.9091c3.2002-1.3193,5.4189-7.121,8.2519-3.9091,2.8321,3.2119-.2461,22.4795,3.5703,24.5742,3.8174,2.0947,11.3916,6.0742,8.375,9.4951-3.0175,3.4209-15.6396,4.1885-18.8418,2.9316-3.2021-1.2558-12.8076-7.8183-13.916-14.1025-1.1084-6.2822-14.0381-16.7549-14.0381-22.2002s15.6397-20.5254,17.2403-18.71C82.9756,349.4102,82.9336,356.7832,85.6025,365.6065Z" fill="#c557cf"/>
          <path d="M66.5127,360.961h0s15.3467,18.0507,15.3467,25.9677c0,7.918,10.4746,14.6162,14.9052,14.6162,2.795,0,9.9121-2.3593,14.791-4.1044a2.39587,2.39587,0,0,1-.625,2.2353c-3.0175,3.4209-15.6396,4.1885-18.8418,2.9316-3.2021-1.2558-12.8066-7.8183-13.916-14.1025-1.1084-6.2822-14.0381-16.7549-14.0381-22.2002C64.1347,364.9717,65.0732,363.0596,66.5127,360.961Z" fill="#f9d2fc"/>
          <path d="M251.0713,385.7129s.0058-17.1699,4.7441-18.8476c4.7383-1.6778,8.0625,4.7451,19.1455,4.7451s13.6699-5.8643,17.4873-3.0723c3.8174,2.793,3.5703,14.3818-6.5273,22.0615-10.0977,7.6797-33.7422,21.6426-36.5742,20.5254-2.8321-1.1172-2.0928-10.0537-4.6797-15.499-2.586-5.4453-6.1573-11.1699-3.2012-12.4268,2.9551-1.2558,5.7881,4.7481,7.3887,4.7481S251.0713,385.7129,251.0713,385.7129Z" fill="#c87ccf"/>
          <path d="M284.6279,387.3858c11.5488-7.46,8.1914-18.5362,8.1914-18.5362,3.419,3.2569,2.8604,14.3291-6.8984,21.75-10.0977,7.6797-33.7412,21.6426-36.5742,20.5254-1.3243-.5224-1.8682-2.7549-2.336-5.54C256.4121,401.5674,276.0127,392.9512,284.6279,387.3858Z" fill="#f9d2fc"/>
          <path d="M161.1885,276.8242c5.5058-14.1777,17.0205-52.2871,17.0205-52.2871L157.8486,171.293,128.165,254.8711C137.3213,261.1563,153.3086,268.4141,161.1885,276.8242Z" fill="#262857"/>
          <path d="M190.8398,194.378c-2.4756-6.3301-3.1064-33.1377-3.1064-33.1377H145.6982s-7.2246,9.6796-7.2246,25.3183,17.5693,35.5586,22.6592,41.3301c1.8838,2.1348,10.1543,20.8975,19.8252,43.6816a64.20126,64.20126,0,0,1,36.6719-15.2412C204.206,225.4678,191.9277,197.1592,190.8398,194.378Z" fill="#757ad8"/>
          <path d="M146.2734,64.5293s26.5996,2.9561,30.0479,4.1865c3.4472,1.2315,16.0088,37.6827,13.7929,39.9004-2.2177,2.2159-7.8828,38.9131-2.7099,44.085,5.1719,5.1728,2.9697,12.0693,2.9697,12.0693l-47.7949,2.9551s1.1582-50.2334,0-58.6182C141.3974,100.5528,140.3408,61.9092,146.2734,64.5293Z" fill="#b9bcfc"/>
          <path d="M191.0888,106.7793a3.6452,3.6452,0,0,1-.58,2.6328c-1.2588,4.4121-7.6651,38.0284-2.5332,43.335a12.46532,12.46532,0,0,1,2.3984,12.0234c.9189-4.0752-.0146-8.622-2.9766-11.4853-4.0058-4.3701-2.6113-19.1016-2.0058-25.0196,2.0049-18.8417,4.4492-20.5,4.1513-20.1884,1.0577-3.1768-9.5712-36.9366-13.2216-39.3614C180.2392,70.9043,190.4472,98.8887,191.0888,106.7793Z" fill="#e3e4fe"/>
          <path d="M175.582,53.0352s-7.4551,17.5439-7.4551,23.291c0,0-13.2451-6.2705-14.7695-10.3838S167.208,39.5713,167.208,39.5713Z" fill="#fc6565"/>
          <path d="M175.582,53.0352s-1.4072,3.3125-2.999,7.5293a29.69958,29.69958,0,0,1-7.1817-12.6602,12.90279,12.90279,0,0,1-.0136-5.6855c1.1035-1.6309,1.8203-2.6475,1.8203-2.6475Z" fill="#fd4944"/>
          <path d="M189.7998,15.4268a5.73919,5.73919,0,0,1,3.9951,3.9033c1.2217,3.8682,3.1621,11.29,1.2627,14.4941a23.4155,23.4155,0,0,0-2.9551,11.4942c0,2.1347-8.5381,12.4785-12.6426,12.4785-4.1054,0-11.166-5.418-14.1211-14.2852C162.626,35.3711,177.6611,12.3985,189.7998,15.4268Z" fill="#fc8b8b"/>
          <path d="M116.1894,76.9951c-2.4072-6.372-4.0937-11.4111,3.6768-13.5136,19.4101-4.9659.8144-7.0205,29.375-48.2823,3.6211-5.1767,5.9004-8.205,11.4394-11.1865C168.1777.0879,174.3418.6719,176.3418.4854c18.3008,18.1084.0771.2773-.2149.5342-9.1103.1591-16.873,3.9941-21.042,8.6875-5.7627,6.3779-19.2216,27.707-22.1406,41.4375-.8281,4.5087-1.2168,10.706-8.8672,12.6816-3.3447.9727-8.3369.8691-8.8574,5.415-.9316,10.0967,14.0449,16.3916-5.1914,20.877C124.4131,85.8809,118.3437,82.4678,116.1894,76.9951Z" fill="#3b3a58"/>
          <path d="M161.3808,203.4541c13.9932-5.6318,18.7823-27.1777,18.9815-28.0918l-3.1319-.8681c-.0439.2041-4.583,20.5478-16.9287,25.5166Z" fill="#e3e4ff"/>
          <g>
            <path d="M199.3594,252.7237l1.1005-.5635,2.5352,6.3535-1.0996.5635Zm-4.6182-9.7969,1.0391-.7012,3.1464,5.9873-1.039.7022Zm-5.0547-9.6299,1.0371-.7012,3.1465,5.9932-1.0391.6992Zm-5.0566-9.627,1.0371-.7002,3.1465,5.9913-1.0372.7011Zm-5.0567-9.6279,1.0371-.7002,3.1475,5.9912-1.0361.7012Zm-5.0566-9.626,1.0381-.7011,3.1474,5.9912-1.0371.7011Z" fill="#e3e4ff"/>
            <polygon points="172.608 200.779 173.646 200.078 171.79 196.547 170.753 197.248 172.608 200.779" fill="#e3e4ff"/>
          </g>
          <path d="M187.5224,44.2608a28.28562,28.28562,0,0,1,.3711-6.1748,30.18285,30.18285,0,0,1,.334,6.8818,25.95211,25.95211,0,0,1-3.3554-.3779A21.1471,21.1471,0,0,1,187.5224,44.2608Z" fill="#3b3a58"/>
          <path d="M187.7929,31.749c.2344-.083-3.8271-6.496-8.1074-4.583-4.2802,1.9141-3.4248,1.8643-3.4248,1.8643s3.5557-1.4102,5.7315-.8057C184.167,28.8281,185.9297,32.4043,187.7929,31.749Z" fill="#3b3a58"/>
          <path d="M190.6631,31.8291s3.3554-1.6748,4.2812-1.1875a1.62405,1.62405,0,0,1,.9727,1.1875s-.4199-.7763-1.7295,0C192.8789,32.6055,190.6631,32.4629,190.6631,31.8291Z" fill="#3b3a58"/>
          <path d="M184.2676,49.1729s-4.5323-1.7627-5.5889-4.6328c0,0-.1016,3.2724,3.8769,5.2871Z" fill="#fff"/>
          <path d="M180.9443,35.5762a1.51075,1.51075,0,1,0,1.5108-1.5098A1.51143,1.51143,0,0,0,180.9443,35.5762Z" fill="#3b3a58"/>
          <path d="M190.4101,37.8965a1.28275,1.28275,0,1,0,1.2823-1.2822A1.28325,1.28325,0,0,0,190.4101,37.8965Z" fill="#3b3a58"/>
          <path d="M185.2324,36.4746a4.4676,4.4676,0,0,0-2.3896-3.0576c-1.9063-.7295-5.4737.1953-5.4737.1953S183.0596,32.9072,185.2324,36.4746Z" fill="#3b3a58"/>
          <path d="M189.5029,37.0879s1.9131-1.1465,3.416-.418a2.98083,2.98083,0,0,1,1.4922,2.2032C193.79,36.4102,189.5029,37.0879,189.5029,37.0879Z" fill="#3b3a58"/>
          <path d="M181.7412,41.4776c-.749.9912-2.9844.5654-4.9922-.9532-2.0078-1.5166-3.0283-3.5498-2.2793-4.542.7481-.9902,2.9834-.5644,4.9922.9532C181.4697,38.4531,182.4902,40.4864,181.7412,41.4776Z" fill="#fc6565"/>
          <path d="M147.3418,69.293c-12.5176-2.3467-10.7315,2.0654-2.5996,20.6084,8.1084,18.4873,75.7343,97.9463,76.1396,98.4219,3.4063,5.7031,7.4824,11.8173,9.9824,13.1064,4.9219,2.5371,13.917,4.5742,14.75,2.9609.8321-1.6152,2.67-7.1005,2.67-7.1005s-2.5782-6.6846-5.6075-8.2471c-3.0302-1.5625-9.3144-3.7783-10.4746-4.376,0,0-44.2402-60.1514-52.5166-77.7783C161.6562,68.4942,147.3418,69.293,147.3418,69.293Z" fill="#fc8b8b"/>
          <path d="M120.9053,117.7285c-.5332-.3847,5.582-6.7324,2.791-13.6279-2.791-6.8965,2.916-8.2783.8496-10.3447s-9.6914-15.9268-4.3672-23.9727,11.4385-.4922,10.7617-16.4199c-.6758-15.9268,10.3242-23.1514,17.2207-32.1816C155.0576,12.1504,165.4013,0,172.2978,0s19.9043,7.8516,20.7071,13.2852c.8027,5.4336-21.0909,9.4385-23.2793,16.3027-2.1895,6.8633,7.2519,8.4238-.5469,16.2227-7.7988,7.7988-22.8233,6.8965-20.6895,17.5683,2.1348,10.6729,8.0459,17.2412-3.4472,23.1524-11.4942,5.9111-4.1045,5.582-2.1348,12.1504C144.8779,105.249,130.9209,124.9531,120.9053,117.7285Z" fill="#3b3a58"/>
        </g>
        <path d="M291.0283,319.4307s10.0732,15.7861,7.0664,24.6562c-3.0078,8.8711-16.6885,33.9786-16.6885,36.2334,0,2.2559,1.6534,20.2969,1.6534,21.8008,0,1.5029,4.7714.9014,6.9707,5.2617,2.2011,4.3594,0,3.1573,0,3.1573l-11.6309.1523s-6.2734-25.0264-10.3213-31.0527a5.53591,5.53591,0,0,0-.6543-.8223c-3.9834-3.9853,6.0147-11.4268,6.0147-19.8457s-11.5772-26.4609-11.5772-26.4609Z" fill="#564532"/>
        <path d="M379.1679,342.4864s-15.6357,27.2119-17.29,33.3759c-1.6533,6.1641-9.1699,26.9121-9.1699,30.0694,0,3.1572,3.8799,3.0097,3.8799,8.4209,0,0-11.0215,1.5791-12.6006,0-1.5801-1.5791,1.9541-7.9698,0-11.7286-1.9551-3.7587,3.1572-19.8457,4.9609-28.415,1.8047-8.5703,3.0078-31.7226,3.0078-31.7226Z" fill="#564532"/>
        <path d="M263.3652,285.9033s80.585-8.4189,92.6123-8.4189c12.0274,0,70.9629,8.7207,80.8858,10.2236,9.9228,1.503,12.0273,8.7198,15.0341,15.335,3.0069,6.6152,2.4063,9.6221,2.4063,12.9297s8.9453,12.8545,10.2226,14.1328c1.2784,1.2773-10.9746,9.7715-13.2304,10.5234-2.2549.752-7.0664-5.8633-7.0664-4.3593,0,1.5029,2.4511,3.0214,1.0527,4.4199-1.3984,1.3984-5.5625-.0606-8.7197-3.2178s-6.1641-8.8701-10.9756-8.8701c-4.8106,0-10.5234,5.1123-16.3867,1.8047-5.8643-3.3076-7.1416-5.3379-9.4727-3.0069-2.3301,2.3291-5.8584,12.1631-7.5166,13.8213-1.6592,1.6592-1.9541,24.8164-1.0527,27.2227.9014,2.4053,10.374,29.4678,14.4336,34.7295,4.0586,5.2627,8.1181,4.3603,9.0205,8.8701.9023,4.5107-1.5039,4.5107-2.1045,4.5107-.6016,0-9.3975-.2256-10.374.752-.9785.9775-3.9092-5.5635-5.4131-9.0215-1.5029-3.457-11.8018-24.8818-17.2901-30.3691-5.4873-5.4873-12.7783-18.6426-12.7783-18.6426s1.3526-13.9824-.3008-15.6358c-1.6533-1.6543-6.9169,2.2032-17.4404,3.8077-10.5234,1.6045-54.4248-20.7969-59.5371-22.6016-5.1113-1.8037-18.3418,13.2305-28.7148,26.3105-10.375,13.0801-23.6055,15.9366-25.5586,19.545-1.9551,3.6084-5.8643,23.6045-5.8643,28.7158,0,5.1123,3.0068,4.9619,3.0068,8.7207v3.7578s-14.4326,1.6543-14.4326-1.0518c0-2.706,3.1573-11.2763,2.2549-16.2373-.9023-4.9619-2.2549-21.1992-2.2549-21.1992s11.125-6.164,12.6289-18.6426c1.503-12.4785,2.1045-37.1347,2.1045-46.7578C232.5439,298.3828,263.3652,285.9033,263.3652,285.9033Z" fill="#80674a"/>
        <path d="M263.3652,285.9033s-27.3633,1.3038-33.2764,7.2168c-5.914,5.9131-23.6542,35.0811-34.8808,37.4864-11.2246,2.4052-16.4375-2.0049-16.4375-2.0049s8.0185,10.2236,20.4473,10.2236c12.4277,0,23.1113-18.0654,33.3144-28.2676C242.7353,300.3545,263.3652,285.9033,263.3652,285.9033Z" fill="#80674a"/>
        <path d="M461.6152,326.9571a8.69556,8.69556,0,0,0-.0742,6.8046c2.0615-1.705,3.4619-3.1806,2.9853-3.6562C464.1299,329.708,462.9931,328.5137,461.6152,326.9571Z" fill="#3b3a58"/>
        <path d="M451.04,316.6768a1.88085,1.88085,0,1,1-1.8808-1.8799A1.88132,1.88132,0,0,1,451.04,316.6768Z" fill="#3b3a58"/>
        <path d="M431.2402,291.6299c-5.2295,6.2959-8.1777,26.7734-5.3457,32.2988,2.832,5.5244,14.4541,7.4991,16.4346,5.5196,1.9785-1.9795.3945-32.0762-1.3867-36.0362C439.1611,289.4522,434.5224,287.6797,431.2402,291.6299Z" fill="#99856e"/>
        <path d="M401.1943,282.0274s-5.7685,30.6132-1.2148,45.4638l3.541-.0224,2.3262-45.0449Z" fill="#3b3a58"/>
        <path d="M392.4326,285.9033c-31.2891-6.1464-35.1094-2.8076-36.4824-2.874-15.3496,3.5-88.7539,7.7285-100.3145,9.1494-9.8457,1.2178-14.3847,14.5899-15.665,24.4981.374-6.7012,2.292-14.7842,6.3086-20.166,7.166-9.6241,13.2295-5.044,104.1465-14.3965C357.5156,281.1934,364.706,278.2422,392.4326,285.9033Z" fill="#99856e"/>
      </g>
    </g>
  </g>
</svg>
