<svg xmlns="http://www.w3.org/2000/svg" viewBox="0 0 68.4259 56.39063">
  <g id="Layer_2" data-name="Layer 2">
    <g id="Layer_1-2" data-name="Layer 1">
      <g>
        <path d="M.17468,53.08675a.16106.16106,0,0,1-.05422-.31637C3.138,51.893,9.31608,46.88883,13.40521,42.52709a22.67455,22.67455,0,0,0,4.08511-6.383c1.75655-3.9043.70212-12.35212.70212-12.82979a22.93037,22.93037,0,0,1,3.19149-11.04255,21.834,21.834,0,0,1,8.31736-7.24444A46.36588,46.36588,0,0,1,51.19934,0Q57.7384,0,61.76379,2.49609q4.02539,2.49682,4.02539,6.53907,0,7.48827-10.65234,14.0625a22.094,22.094,0,0,1,9.75585,5.09765,10.49655,10.49655,0,0,1,3.53321,7.73438q0,8.50854-9.2461,14.48437Q49.933,56.39063,36.78527,56.39062q-9.6687,0-9.668-6.082a48.04893,48.04893,0,0,1,1.05469-6.75l6.041-22.71235a60.17935,60.17935,0,0,0,.97949-6.21276c0-.82032-1.747-1.8244-2.30951-2.50457a22.20625,22.20625,0,0,1,6.50391-1.75782q2.17968,0,2.17968,2.498c0,.42285-3.8134,3.07956-4.58684,6.78561L32.80947,41.442a16.76571,16.76571,0,0,0-.25532,4.766c0,2.95605,5.28581,5.64752,10.91081,5.64752a18.27032,18.27032,0,0,0,11.86523-3.99561q4.93872-3.99683,4.93946-9.59424a8.71307,8.71307,0,0,0-2.74219-6.83007q-2.74218-2.46387-9.14062-3.80274a13.31369,13.31369,0,0,1-4.99219.91407,10.51837,10.51837,0,0,1-2.28516-.31641q1.01953-3.76171,2.54883-5.0625,1.52929-1.30005,4.93945-1.30078.87817,0,2.35547.10547,7.48828-5.48437,7.48828-10.86328c0-4.2417-3.2603-5.78481-9.70313-6.36329C41.4049,4.08764,22.048,10.159,22.97968,23.95263c.21158,3.13248.734,7.42592-.51064,11.234-1.49071,4.56108-5.02189,8.57273-7.97872,11.04255C10.72423,49.375,3.219,52.84552.17468,53.08675Z"/>
        <path d="M23.89457,53.33561,20.63925,50.9739s-.95293-1.8625-4.93617-.93617a32.06475,32.06475,0,0,0-6.2165,2.10413s1.53565-.87374,5.11012-3.21051c3.01326-1.96988,7.383.12766,7.383.12766L24.852,50.14412a4.346,4.346,0,0,0,.06383,1.91489c.3032,1.135,1.11912,2.41891,1.7234,2.55319"/>
      </g>
    </g>
  </g>
</svg>
