<svg xmlns="http://www.w3.org/2000/svg" viewBox="0 0 374.33286 72.61214">
  <g id="Layer_2" data-name="Layer 2">
    <g id="Layer_1-2" data-name="Layer 1">
      <g>
        <path d="M.17468,53.08675a.16106.16106,0,0,1-.05422-.31637C3.138,51.893,9.31608,46.88883,13.40521,42.52709a22.67455,22.67455,0,0,0,4.08511-6.383c1.75655-3.9043.70212-12.35212.70212-12.82979a22.93037,22.93037,0,0,1,3.19149-11.04255,21.834,21.834,0,0,1,8.31736-7.24444A46.36588,46.36588,0,0,1,51.19934,0Q57.7384,0,61.76379,2.49609q4.02539,2.49682,4.02539,6.53907,0,7.48827-10.65234,14.0625a22.094,22.094,0,0,1,9.75585,5.09765,10.49655,10.49655,0,0,1,3.53321,7.73438q0,8.50854-9.2461,14.48437Q49.933,56.39063,36.78527,56.39062q-9.6687,0-9.668-6.082a48.04893,48.04893,0,0,1,1.05469-6.75l6.041-22.71235a60.17935,60.17935,0,0,0,.97949-6.21276c0-.82032-1.747-1.8244-2.30951-2.50457a22.20625,22.20625,0,0,1,6.50391-1.75782q2.17968,0,2.17968,2.498c0,.42285-3.8134,3.07956-4.58684,6.78561L32.80947,41.442a16.76571,16.76571,0,0,0-.25532,4.766c0,2.95605,5.28581,5.64752,10.91081,5.64752a18.27032,18.27032,0,0,0,11.86523-3.99561q4.93872-3.99683,4.93946-9.59424a8.71307,8.71307,0,0,0-2.74219-6.83007q-2.74218-2.46387-9.14062-3.80274a13.31369,13.31369,0,0,1-4.99219.91407,10.51837,10.51837,0,0,1-2.28516-.31641q1.01953-3.76171,2.54883-5.0625,1.52929-1.30005,4.93945-1.30078.87817,0,2.35547.10547,7.48828-5.48437,7.48828-10.86328c0-4.2417-3.2603-5.78481-9.70313-6.36329C41.4049,4.08764,22.048,10.159,22.97968,23.95263c.21158,3.13248.734,7.42592-.51064,11.234-1.49071,4.56108-5.02189,8.57273-7.97872,11.04255C10.72423,49.375,3.219,52.84552.17468,53.08675Z" />
        <path d="M23.89457,53.33561,20.63925,50.9739s-.95293-1.8625-4.93617-.93617a32.06475,32.06475,0,0,0-6.2165,2.10413s1.53565-.87374,5.11012-3.21051c3.01326-1.96988,7.383.12766,7.383.12766L24.852,50.14412a4.346,4.346,0,0,0,.06383,1.91489c.3032,1.135,1.11912,2.41891,1.7234,2.55319" />
      </g>
      <g>
        <path d="M88.618,25.04573a7.15609,7.15609,0,0,1,5.73047,2.74219q2.28515,2.74218,2.28515,7.62891a20.595,20.595,0,0,1-5.48437,14.00976Q85.6649,55.63167,79.5477,55.63167a7.9172,7.9172,0,0,1-6.06445-2.46094,9.43586,9.43586,0,0,1-2.30273-6.71484,23.90854,23.90854,0,0,1,4.21875-13.64063Q80.70712,25.04574,88.618,25.04573Zm-2.98828,2.63672q-2.98828,0-5.78321,4.27149T77.05161,43.74886a13.06186,13.06186,0,0,0,1.72266,7.207,3.86651,3.86651,0,0,0,3.375,1.93359q2.95313,0,5.3789-3.65625a21.13216,21.13216,0,0,0,3.09375-11.77734q0-5.27344-1.42382-7.52344A4.16063,4.16063,0,0,0,85.62974,27.68245Z" />
        <path d="M130.80552,48.38948q-6.627,7.13745-10.57471,7.13672a2.95009,2.95009,0,0,1-2.09766-1.01953q-1.00488-1.01954-1.42724-5.30859l-1.43408-14.69532q-5.05518,13.57106-8.38965,17.29688-3.33546,3.72656-7.26612,3.72656a4.14516,4.14516,0,0,1-2.75537-.89648,2.93985,2.93985,0,0,1-1.0708-2.373,3.1235,3.1235,0,0,1,.89356-2.30273,2.93614,2.93614,0,0,1,2.15674-.89649,5.83007,5.83007,0,0,1,1.96386.52734,5.90383,5.90383,0,0,0,1.99854.49219,4.90074,4.90074,0,0,0,3.436-1.6875q1.68237-1.6875,5.06592-9.59765,3.38379-7.91016,3.38379-8.75391,0-1.0891-.97852-1.08984-2.1328,0-6.32714,4.18359l-1.50293-1.23047q7.41723-6.85546,11.42578-6.85547a2.01225,2.01225,0,0,1,1.98633.93164,13.41643,13.41643,0,0,1,.75585,4.02539L121.454,46.91292q.42188,4.78125,2.28516,4.78125.94922,0,3.12891-1.96875,2.21484-2.00391,3.02343-2.60156Z" />
        <path d="M147.99692,25.04573a7.15606,7.15606,0,0,1,5.73047,2.74219q2.28516,2.74218,2.28516,7.62891a20.595,20.595,0,0,1-5.48438,14.00976q-5.48437,6.20508-11.60156,6.20508a7.9172,7.9172,0,0,1-6.06445-2.46094,9.43582,9.43582,0,0,1-2.30274-6.71484,23.90854,23.90854,0,0,1,4.21875-13.64063Q140.086,25.04574,147.99692,25.04573Zm-2.98828,2.63672q-2.98829,0-5.7832,4.27149t-2.79492,11.79492a13.062,13.062,0,0,0,1.72265,7.207,3.86651,3.86651,0,0,0,3.375,1.93359q2.95313,0,5.37891-3.65625a21.13224,21.13224,0,0,0,3.09375-11.77734q0-5.27344-1.42383-7.52344A4.16063,4.16063,0,0,0,145.00864,27.68245Z" />
        <path d="M189.868,48.46517q-7.0254,7.37767-10.398,7.37744a2.56259,2.56259,0,0,1-1.84473-.88086,3.33088,3.33088,0,0,1-.86084-2.43164,20.33122,20.33122,0,0,1,.70313-4.64893l1.65478-6.98h-9.77685L166.1019,54.61214h-5.23779q.07032-.42187.73828-2.85156.49219-1.76,1.86328-7.25245l3.12891-12.56787a6.86177,6.86177,0,0,0,.24609-1.54931q0-1.05615-.73828-1.05616-1.54761,0-5.41406,3.79688l-1.54688-1.19531q7.38941-6.88989,11.1543-6.89063,1.93506,0,1.93555,2.56641,0,2.46387-2.31348,11.14453h9.793L183.118,25.95979h4.99218l-3.30468,12.26954q-2.918,10.6875-2.918,12.16406,0,1.37109,1.01953,1.37109,1.26563,0,5.80078-4.60547Z" />
        <path d="M193.4188,33.13167l-1.05469-1.40625a28.39817,28.39817,0,0,1,6.61621-5.13281,11.65462,11.65462,0,0,1,4.93848-1.65235,1.67765,1.67765,0,0,1,1.1123.31641,1.09629,1.09629,0,0,1,.36914.87891,12.55315,12.55315,0,0,1-.5625,2.707q-.80859,2.95313-1.126,4.67578,8.41406-8.57739,12.86816-8.57813a2.29563,2.29563,0,0,1,1.75293.63282,2.84964,2.84964,0,0,1,.5957,2.0039,20.85266,20.85266,0,0,1-1.05175,5.02735,35.00843,35.00843,0,0,1,6.96582-5.92383,10.1874,10.1874,0,0,1,4.60937-1.74024,3.01818,3.01818,0,0,1,2.28613.84375,3.638,3.638,0,0,1,.80957,2.60157,10.757,10.757,0,0,1-.35156,2.49609q-.35156,1.44214-2.5664,8.78906-2.77736,9.10547-2.77735,10.86328,0,1.19532.98438,1.19532a2.31747,2.31747,0,0,0,1.30078-.42188,33.80938,33.80938,0,0,0,4.2539-3.65625l1.16016,1.26563q-.73829.59838-2.77734,2.46093a32.79334,32.79334,0,0,1-3.86719,3.16407,7.20515,7.20515,0,0,1-3.44531,1.19531A2.3368,2.3368,0,0,1,222.59849,54.7a4.551,4.551,0,0,1-.8086-2.86524,18.98736,18.98736,0,0,1,.49219-3.95507q.49218-2.26758,2.88281-10.17774a40.16115,40.16115,0,0,0,1.793-7.207q0-1.19458-1.05469-1.19531a5.077,5.077,0,0,0-2.35547.8789,18.26941,18.26941,0,0,0-5.0625,4.46485,16.88487,16.88487,0,0,0-2.46093,5.80078q-2.35548,8.68359-3.51563,14.168h-4.99219l5.23829-21.48047a22.15866,22.15866,0,0,0,.5625-2.67188,1.21523,1.21523,0,0,0-.28028-.86132,1.05789,1.05789,0,0,0-.80761-.29883,6.14281,6.14281,0,0,0-2.94825,1.47656,19.46129,19.46129,0,0,0-5.002,4.834,22.659,22.659,0,0,0-2.61426,7.11914l-2.70215,11.88281H193.911l3.97265-16.76953q1.75782-7.27736,1.75781-7.91016,0-.80859-.63281-.80859Q197.63755,29.12386,193.4188,33.13167Z" />
        <path d="M260.87,25.95979h5.00586L262.57114,38.2469q-2.918,10.70363-2.918,12.18164a1.47481,1.47481,0,0,0,.31641,1.01954.93365.93365,0,0,0,.70312.35156,2.69766,2.69766,0,0,0,1.40625-.52735,42.54566,42.54566,0,0,0,4.39454-4.07812l1.16015,1.30078q-7.06641,7.34839-10.40625,7.34766a2.50678,2.50678,0,0,1-1.916-.86133,3.4825,3.4825,0,0,1-.791-2.44336,21.401,21.401,0,0,1,.76172-4.88672,30.9846,30.9846,0,0,1-7.72852,6.293,10.92186,10.92186,0,0,1-5.30468,1.793,2.42694,2.42694,0,0,1-1.93262-.80957,3.87426,3.87426,0,0,1-.70215-2.56983,15.14654,15.14654,0,0,1,.31641-2.957q.457-2.21776,2.32031-8.90674,2.35547-8.48364,2.35547-10.17382,0-.98511-.70313-.98536a3.7309,3.7309,0,0,0-1.72265.6504,27.23583,27.23583,0,0,0-3.72657,3.14648l-1.54687-1.23047a42.45716,42.45716,0,0,1,7.18945-5.53711,9.20044,9.20044,0,0,1,3.99024-1.31836,1.72,1.72,0,0,1,1.37109.61621,2.90778,2.90778,0,0,1,.52734,1.91846q0,2.42871-2.53125,11.93408-2.25,8.5547-2.25,9.752a1.82942,1.82942,0,0,0,.47364,1.26709,1.38439,1.38439,0,0,0,1.03711.52783q1.96581,0,5.584-3.252a15.25271,15.25271,0,0,0,4.74219-7.40039Z" />
        <path d="M270.76255,33.76448l-1.3711-1.40625a24.64337,24.64337,0,0,1,6.36329-5.66015A11.41885,11.41885,0,0,1,281.23911,24.87a2.05584,2.05584,0,0,1,1.38867.43945,1.60222,1.60222,0,0,1,.50977,1.28321,10.0183,10.0183,0,0,1-.22852,2.09179q-.22851,1.073-1.42383,5.08008A59.79584,59.79584,0,0,1,288.83286,27.12a11.359,11.359,0,0,1,6.04688-2.14453,3.6415,3.6415,0,0,1,3.02343,1.6875,8.65,8.65,0,0,1,1.23047,5.09766A27.95743,27.95743,0,0,1,293.829,47.93245q-5.30419,7.66479-11.73437,7.66406a10.53522,10.53522,0,0,1-5.05859-1.37109L274.03208,65.827a6.99853,6.99853,0,0,0-.28125,1.72266,1.97628,1.97628,0,0,0,.98437,1.86328q1.51173.87817,6.36329,1.44141l-.457,1.75781q-5.66014-.457-8.89453-.457-3.33984,0-8.64843.457l.457-1.75781a6.37518,6.37518,0,0,0,3.88476-1.47657,8.99124,8.99124,0,0,0,1.95117-4.2539l6.36329-26.6836a84.73085,84.73085,0,0,0,1.793-8.29687q0-.91407-.8789-.91406Q275.12192,29.22933,270.76255,33.76448Zm7.12207,16.59375a8.10043,8.10043,0,0,0,5.68848,2.77735q4.21288,0,7.39062-6.57422a29.3768,29.3768,0,0,0,3.17773-12.832,4.53448,4.53448,0,0,0-.89453-3.041,3.01451,3.01451,0,0,0-2.40332-1.03711,6.41462,6.41462,0,0,0-3.78808,1.65234,23.52816,23.52816,0,0,0-4.98242,5.09766,21.04261,21.04261,0,0,0-2.31446,6.32813Z" />
        <path d="M325.88755,24.44808l2.31933-.49219-2.63671,8.89453q-1.582,5.30859-2.98731,12.23437a32.4623,32.4623,0,0,0-.77344,4.85157q0,1.08984.87891,1.08984a4.21253,4.21253,0,0,0,1.793-.73828,23.03207,23.03207,0,0,0,4.18359-3.23438l1.125,1.3711q-4.00781,3.657-5.13281,4.42969a19.21152,19.21152,0,0,1-4.28906,2.28515,7.50134,7.50134,0,0,1-2.60157.49219,1.95988,1.95988,0,0,1-1.37109-.42188,1.59118,1.59118,0,0,1-.457-1.23046,5.25222,5.25222,0,0,1,.28125-1.44141l1.40625-4.78125a29.81862,29.81862,0,0,1-7.207,6.22266,9.012,9.012,0,0,1-4.71094,1.61718,3.68653,3.68653,0,0,1-3.12891-1.4414,8.11632,8.11632,0,0,1-1.47656-5.0625,21.07427,21.07427,0,0,1,1.98633-8.29688,30.68241,30.68241,0,0,1,5.32617-8.29687,22.65565,22.65565,0,0,1,7.03125-5.48438,17.27791,17.27791,0,0,1,7.3125-1.33594,19.081,19.081,0,0,1,2.28516.14063Zm-4.35938,5.3789a16.50724,16.50724,0,0,0-3.19922-.38672,9.035,9.035,0,0,0-5.51953,1.74024q-2.35547,1.74022-4.37695,6.25781a21.92334,21.92334,0,0,0-2.02148,9.01758,5.732,5.732,0,0,0,.80859,3.44531,2.53555,2.53555,0,0,0,2.10937,1.05469q2.42578,0,5.20313-2.61914a15.5561,15.5561,0,0,0,4.07812-7.541Z" />
        <path d="M338.75474,33.13167l-1.54688-1.23047q7.418-6.85546,11.28613-6.85547,1.82813,0,2.07422,2.25l2.40528,21.86719,14.61035-23.20313H372.575L369.2352,38.22933q-2.88281,10.6875-2.88281,12.16406,0,1.37109,1.01953,1.37109,1.26563,0,5.80078-4.57031l1.16016,1.30078q-7.04,7.34839-10.41992,7.34766a2.61711,2.61711,0,0,1-1.83008-.86231A3.27527,3.27527,0,0,1,361.203,52.533q0-2.35914,2.44726-11.72461l2.13282-8.2041L351.49985,55.491h-2.65527l-2.26367-20.39062q-4.92774,14.23829-8.00781,17.332a9.46836,9.46836,0,0,1-6.84571,3.09375,3.76209,3.76209,0,0,1-2.833-1.002,3.27365,3.27365,0,0,1-.124-4.51758,2.70534,2.70534,0,0,1,2.10938-.94922,5.6962,5.6962,0,0,1,2.07421.52734,6.75426,6.75426,0,0,0,2.00391.52735,4.31593,4.31593,0,0,0,3.12891-1.86328q1.582-1.86328,4.64062-9.31641t3.0586-9a.777.777,0,0,0-.87891-.87891Q342.79771,29.05354,338.75474,33.13167Z" />
      </g>
    </g>
  </g>
</svg>
